<?xml version="1.0" encoding="utf-8"?>
<!-- Generator: Adobe Illustrator 19.0.0, SVG Export Plug-In . SVG Version: 6.00 Build 0)  -->
<svg version="1.1" id="Layer_1" xmlns="http://www.w3.org/2000/svg" xmlns:xlink="http://www.w3.org/1999/xlink" x="0px" y="0px"
	 viewBox="0 0 478 828" style="enable-background:new 0 0 478 828;" xml:space="preserve">
<style type="text/css">
	.st0{fill:none;stroke:#000000;stroke-miterlimit:10;}
</style>
<g id="XMLID_277_">
	<path id="XMLID_288_" class="st0" d="M364.1,73.6c17.5,0,31.6,14.2,31.6,31.6v613.3c0,17.5-14.2,31.6-31.6,31.6h-249
		c-17.5,0-31.6-14.2-31.6-31.6V105.2c0-17.5,14.2-31.6,31.6-31.6h28.8c6.1,0,8.3,0,8.7,7.7c0.4,8,5.9,12.9,13.3,15.2
		c2.5,0.8,5.3,0.9,8,0.9h5.4h120.7h5.4c2.7,0,5.5-0.1,8-0.9c7.4-2.3,13-7.2,13.3-15.2c0.4-7.7,2.6-7.7,8.7-7.7H364.1z"/>
	<path id="XMLID_287_" class="st0" d="M415.5,721.4c0,28.8-23.3,52.1-52.1,52.1H114.6c-28.8,0-52.1-23.3-52.1-52.1V107.6
		c0-28.8,23.3-52.1,52.1-52.1h248.8c28.8,0,52.1,23.3,52.1,52.1V721.4z"/>
	<path id="XMLID_286_" class="st0" d="M407.5,720.9c0,24.6-20,44.6-44.6,44.6H114.1c-24.6,0-44.6-20-44.6-44.6V107.1
		c0-24.6,20-44.6,44.6-44.6h248.8c24.6,0,44.6,20,44.6,44.6V720.9z"/>
	<g id="XMLID_279_">
		<path id="XMLID_280_" class="st0" d="M259.7,82.5h-39c-1.7,0-3-1-3-2.5s1.3-2.5,3-2.5h39c1.7,0,3,1,3,2.5S261.4,82.5,259.7,82.5z"
			/>
	</g>
	<circle id="XMLID_278_" class="st0" cx="275.8" cy="78.9" r="4.4"/>
</g>
</svg>
